<?xml version="1.0" standalone="no"?>
<!DOCTYPE svg PUBLIC "-//W3C//DTD SVG 20010904//EN"
 "http://www.w3.org/TR/2001/REC-SVG-20010904/DTD/svg10.dtd">
<svg version="1.0" xmlns="http://www.w3.org/2000/svg"
 width="500.000000pt" height="500.000000pt" viewBox="0 0 500.000000 500.000000"
 preserveAspectRatio="xMidYMid meet">
<metadata>
Created by potrace 1.14, written by Peter Selinger 2001-2017
</metadata>
<g transform="translate(0.000000,500.000000) scale(0.100000,-0.100000)"
fill="#000000" stroke="none">
<path d="M862 3402 l-243 -2 3 -93 3 -92 50 -5 50 -5 3 -42 c3 -41 4 -43 36
-43 41 0 66 -26 66 -68 0 -29 2 -31 43 -34 39 -3 42 -5 45 -33 6 -70 9 -74 60
-77 l47 -3 3 -47 3 -48 344 0 344 0 3 48 3 47 98 3 97 3 0 92 c0 105 6 117 62
117 36 0 38 2 38 33 0 57 3 58 166 55 l149 -3 3 -42 c3 -43 3 -43 42 -43 44 0
60 -18 60 -69 0 -29 3 -31 34 -31 58 0 66 -7 66 -61 l0 -49 50 0 50 0 0 -50 0
-50 344 0 345 0 3 48 3 47 48 3 47 3 0 43 c0 53 13 66 67 66 l43 0 0 44 c0 48
9 56 61 56 26 0 29 3 29 33 0 45 10 55 55 59 l40 3 3 93 3 92 -343 0 c-189 -1
-779 0 -1313 2 -533 2 -1079 2 -1213 0z m158 -237 l5 -50 45 0 45 0 5 50 c5
46 7 50 34 53 15 2 39 1 52 -2 21 -6 24 -12 24 -56 l0 -50 50 0 50 0 0 -50 0
-50 50 0 50 0 0 -55 0 -55 -55 0 -55 0 0 50 0 50 -45 0 -45 0 0 -50 0 -50 -55
0 -55 0 0 50 0 50 -49 0 -50 0 -3 48 -3 47 -50 5 -50 5 -3 49 c-4 58 6 67 63
64 l40 -3 5 -50z m1618 -2 l3 -53 44 0 44 0 3 53 3 52 50 0 50 0 5 -50 5 -50
48 -3 47 -3 0 -50 0 -49 50 0 50 0 0 -55 0 -55 -55 0 -55 0 0 50 0 50 -45 0
-45 0 0 -50 0 -50 -55 0 -55 0 0 49 0 50 -47 3 -48 3 -3 48 -3 47 -50 0 -49 0
0 53 c0 30 3 57 7 61 4 4 28 6 53 4 l45 -3 3 -52z"/>
<path d="M1130 3055 l0 -45 45 0 45 0 0 45 0 45 -45 0 -45 0 0 -45z"/>
<path d="M2740 3055 l0 -45 45 0 45 0 0 45 0 45 -45 0 -45 0 0 -45z"/>
<path d="M3021 2100 c-187 -39 -404 -170 -507 -305 -65 -86 -129 -220 -157
-331 -12 -49 -25 -93 -29 -99 -10 -16 9 -245 26 -306 56 -208 163 -369 325
-488 113 -84 191 -117 350 -151 119 -25 203 -25 322 0 118 25 149 35 224 73
219 109 374 302 445 558 41 151 37 297 -16 464 -23 75 -34 99 -91 202 -31 57
-156 187 -227 237 -77 55 -162 98 -251 126 -57 18 -98 23 -220 26 -82 2 -170
-1 -194 -6z m344 -42 c28 -6 57 -14 66 -19 17 -9 46 -95 35 -106 -3 -3 -61 6
-128 21 -68 14 -145 29 -171 33 -39 5 -50 11 -58 30 -14 38 -11 51 14 57 31 6
182 -3 242 -16z m-311 -24 c12 -32 5 -47 -38 -86 -68 -59 -132 -151 -191 -273
-76 -155 -84 -197 -90 -442 -6 -238 7 -207 -124 -288 -40 -26 -77 -43 -81 -38
-4 4 -15 38 -24 74 -73 299 -30 588 121 809 97 141 144 177 298 229 103 35
121 37 129 15z m629 -126 c34 -27 48 -63 31 -80 -3 -3 -50 15 -105 41 l-99 46
0 48 0 49 68 -37 c37 -21 84 -51 105 -67z m-375 -8 c298 -63 581 -219 636
-350 22 -55 46 -183 46 -252 0 -57 -1 -61 -16 -46 -11 10 -19 45 -24 96 -5 43
-14 98 -21 121 l-12 41 -39 -65 c-22 -36 -41 -65 -43 -65 -3 0 -30 17 -62 37
-178 114 -489 218 -786 265 -42 6 -77 16 -77 21 0 13 96 145 139 190 l36 39
65 -6 c36 -3 107 -15 158 -26z m506 -113 c16 -20 27 -40 23 -43 -11 -12 -77
46 -77 67 0 28 18 20 54 -24z m-1335 -174 c-46 -138 -62 -255 -55 -418 3 -80
13 -176 24 -222 10 -46 17 -83 15 -83 -8 0 -53 111 -68 169 -37 145 -30 301
20 459 22 68 78 182 90 182 2 0 -10 -39 -26 -87z m587 2 c230 -40 462 -119
629 -213 139 -78 295 -218 295 -264 -1 -69 -57 -222 -89 -242 -12 -8 -89 25
-330 138 -188 88 -730 366 -758 389 -19 14 -16 55 7 122 30 86 45 105 78 100
15 -3 91 -16 168 -30z m199 -487 l239 -120 -29 -25 c-66 -54 -199 -143 -214
-143 -14 0 -284 111 -412 169 -45 20 -46 22 -53 73 -8 68 -8 216 0 256 l6 30
112 -59 c61 -33 219 -114 351 -181z m-417 -171 c37 -19 113 -53 170 -77 56
-24 102 -47 102 -52 0 -9 -97 -117 -145 -161 -31 -28 -147 -103 -172 -111 -17
-5 -37 2 -75 28 -78 51 -228 208 -228 238 0 4 30 23 68 42 37 19 96 55 132 80
36 25 68 46 73 46 4 0 38 -15 75 -33z m1012 -115 c0 -18 -78 -129 -109 -155
-30 -25 -81 -37 -81 -19 0 5 13 18 30 30 16 12 53 52 82 87 46 58 78 81 78 57z
m-575 -78 c58 -25 105 -51 105 -57 0 -20 -65 -93 -153 -172 -48 -44 -94 -83
-102 -88 -27 -15 -285 50 -285 73 0 4 26 24 59 43 60 37 177 146 226 211 15
20 31 36 36 36 5 0 56 -21 114 -46z m294 -116 c47 -19 86 -38 88 -44 4 -13
-87 -68 -175 -104 -72 -31 -265 -70 -278 -57 -4 4 15 26 42 49 61 54 117 111
161 165 29 35 38 41 56 33 12 -5 60 -24 106 -42z"/>
</g>
</svg>
